<svg width="32" height="32" viewBox="0 0 32 32" fill="none"
  xmlns="http://www.w3.org/2000/svg">
  <path d="M0 3.73723C0 1.67321 1.67321 0 3.73723 0H28.2628C30.3268 0 32 1.67321 32 3.73723V28.2628C32 30.3268 30.3268 32 28.2628 32H3.73723C1.67321 32 0 30.3268 0 28.2628V3.73723Z" fill="url(#paint0_linear_713_29265)"/>
  <g filter="url(#filter0_d_713_29265)">
    <path d="M26.702 24.759L16.7831 7.24079L6.86386 24.759L26.702 24.759ZM9.81271 15.4525L14.3702 7.24079H5.25537L9.81271 15.4525ZM22.6511 22.4402L10.9151 22.4402L16.7831 12.0761L22.6511 22.4402Z" fill="white"/>
  </g>
  <defs>
    <filter id="filter0_d_713_29265" x="1.25537" y="3.24072" width="29.4468" height="25.5183" filterUnits="userSpaceOnUse" color-interpolation-filters="sRGB">
      <feFlood flood-opacity="0" result="BackgroundImageFix"/>
      <feColorMatrix in="SourceAlpha" type="matrix" values="0 0 0 0 0 0 0 0 0 0 0 0 0 0 0 0 0 0 127 0" result="hardAlpha"/>
      <feOffset/>
      <feGaussianBlur stdDeviation="2"/>
      <feComposite in2="hardAlpha" operator="out"/>
      <feColorMatrix type="matrix" values="0 0 0 0 0.227451 0 0 0 0 0.282353 0 0 0 0 0.380392 0 0 0 0.25 0"/>
      <feBlend mode="normal" in2="BackgroundImageFix" result="effect1_dropShadow_713_29265"/>
      <feBlend mode="normal" in="SourceGraphic" in2="effect1_dropShadow_713_29265" result="shape"/>
    </filter>
    <linearGradient id="paint0_linear_713_29265" x1="7.75644" y1="35.2225" x2="27.9906" y2="-5.20843" gradientUnits="userSpaceOnUse">
      <stop stop-color="#1359ED"/>
      <stop offset="0.499698" stop-color="#588EFF"/>
      <stop offset="1" stop-color="#558CFF"/>
    </linearGradient>
  </defs>
</svg>
